<?xml version="1.0" encoding="UTF-8" standalone="no"?>
<!DOCTYPE svg PUBLIC "-//W3C//DTD SVG 1.1//EN" "http://www.w3.org/Graphics/SVG/1.1/DTD/svg11.dtd">
<svg version="1.1" xmlns="http://www.w3.org/2000/svg" xmlns:xlink="http://www.w3.org/1999/xlink" preserveAspectRatio="xMidYMid meet" viewBox="0 0 640 640" width="640" height="640"><defs><path d="M352.52 112.57L360.4 114.02L368.18 115.78L375.83 117.83L383.37 120.18L390.77 122.81L398.04 125.72L405.16 128.9L412.14 132.35L418.95 136.05L425.61 140.01L432.1 144.22L438.41 148.66L444.54 153.34L450.49 158.25L456.24 163.37L461.78 168.71L467.13 174.26L472.25 180.01L477.16 185.95L481.84 192.08L486.28 198.4L490.49 204.89L494.45 211.54L498.15 218.36L501.6 225.34L504.78 232.46L507.69 239.73L510.32 247.13L512.66 254.67L514.72 262.32L516.47 270.1L517.92 277.98L519.06 285.97L519.89 294.05L520.38 302.23L520.54 309.83L461.35 309.83L461.35 310.49L422.55 310.49L422.62 309.35L422.71 305.12L422.62 300.89L422.37 296.71L421.95 292.57L421.36 288.47L420.62 284.44L419.72 280.46L418.67 276.53L417.47 272.68L416.12 268.89L414.63 265.16L413 261.52L411.24 257.94L409.34 254.45L407.31 251.04L405.16 247.72L402.88 244.49L400.48 241.35L397.97 238.3L395.35 235.36L392.61 232.52L389.77 229.78L386.83 227.16L383.78 224.65L380.64 222.25L377.41 219.97L374.09 217.82L370.68 215.79L367.19 213.89L363.61 212.13L359.97 210.5L356.24 209.01L352.45 207.66L348.6 206.46L344.67 205.41L340.69 204.51L336.66 203.77L332.57 203.18L328.42 202.76L324.24 202.51L320.01 202.42L315.78 202.51L311.59 202.76L307.45 203.18L303.36 203.77L299.32 204.51L295.34 205.41L291.42 206.46L287.56 207.66L283.77 209.01L280.05 210.5L276.4 212.13L272.83 213.89L269.33 215.79L265.92 217.82L262.6 219.97L259.37 222.25L256.23 224.65L253.19 227.16L250.24 229.78L247.4 232.52L244.67 235.36L242.04 238.3L239.53 241.35L237.13 244.49L234.86 247.72L232.7 251.04L230.67 254.45L228.78 257.94L227.01 261.52L225.38 265.16L223.89 268.89L222.55 272.68L221.34 276.53L220.29 280.46L219.39 284.44L218.65 288.47L218.07 292.57L217.65 296.71L217.39 300.89L217.31 305.12L217.39 309.35L217.46 310.49L184.26 310.49L184.38 316.08L184.72 321.62L185.27 327.09L186.04 332.5L187.02 337.83L188.21 343.1L189.6 348.28L191.19 353.38L192.97 358.39L194.94 363.31L197.09 368.13L199.43 372.85L201.93 377.47L204.61 381.97L207.46 386.36L210.47 390.64L213.64 394.79L216.96 398.81L220.43 402.7L224.04 406.46L227.8 410.07L231.69 413.54L235.71 416.86L239.86 420.03L244.13 423.04L248.53 425.88L253.03 428.56L257.65 431.07L262.37 433.41L267.19 435.56L272.11 437.53L277.12 439.31L282.22 440.9L287.4 442.29L292.66 443.47L298 444.46L303.41 445.23L308.88 445.78L314.41 446.12L320.01 446.23L325.6 446.12L331.13 445.78L336.61 445.23L342.01 444.46L347.35 443.47L352.61 442.29L357.79 440.9L362.89 439.31L367.9 437.53L372.82 435.56L377.64 433.41L382.37 431.07L386.98 428.56L391.49 425.88L395.88 423.04L400.15 420.03L404.3 416.86L408.33 413.54L412.22 410.07L415.97 406.46L419.59 402.7L423.06 398.81L426.38 394.79L429.54 390.64L432.55 386.36L435.4 381.97L438.08 377.47L440.59 372.85L441.88 370.24L511.44 370.24L510.32 373.85L507.69 381.25L504.78 388.52L501.6 395.65L498.15 402.62L494.45 409.44L490.49 416.1L486.28 422.59L481.84 428.9L477.16 435.03L472.25 440.97L467.13 446.72L461.78 452.27L456.24 457.61L450.49 462.74L444.54 467.64L438.41 472.32L432.1 476.77L425.61 480.97L418.95 484.93L412.14 488.64L405.16 492.08L398.04 495.27L390.77 498.17L383.37 500.8L375.83 503.15L368.18 505.2L360.4 506.96L352.52 508.41L344.53 509.55L336.44 510.37L328.27 510.87L320.01 511.04L311.75 510.87L303.57 510.37L295.48 509.55L287.5 508.41L279.61 506.96L271.84 505.2L264.18 503.15L256.65 500.8L249.24 498.17L241.98 495.27L234.85 492.08L227.88 488.64L221.06 484.93L214.4 480.97L207.91 476.77L201.6 472.32L195.47 467.64L189.52 462.74L183.78 457.61L178.23 452.27L172.89 446.72L167.76 440.97L162.86 435.03L158.18 428.9L153.73 422.59L149.53 416.1L145.57 409.44L141.86 402.62L138.41 395.65L135.23 388.52L132.32 381.25L129.69 373.85L127.35 366.32L125.29 358.66L123.54 350.89L122.09 343L120.95 335.01L120.13 326.93L119.63 318.75L119.46 310.49L119.63 302.23L120.13 294.05L120.95 285.97L122.09 277.98L123.54 270.1L125.29 262.32L127.35 254.67L129.69 247.13L132.32 239.73L135.23 232.46L138.41 225.34L141.86 218.36L145.57 211.54L149.53 204.89L153.73 198.4L158.18 192.08L162.86 185.95L167.76 180.01L172.89 174.26L178.23 168.71L183.78 163.37L189.52 158.25L195.47 153.34L201.6 148.66L207.91 144.22L214.4 140.01L221.06 136.05L227.88 132.35L234.85 128.9L241.98 125.72L249.24 122.81L256.65 120.18L264.18 117.83L271.84 115.78L279.61 114.02L287.5 112.57L295.48 111.43L303.57 110.61L311.75 110.11L320.01 109.95L328.27 110.11L336.44 110.61L344.53 111.43L344.53 111.43L352.52 112.57ZM332.27 230.49L335.24 231.04L338.17 231.7L341.06 232.47L343.9 233.36L346.69 234.35L349.43 235.45L352.12 236.65L354.75 237.95L357.32 239.34L359.83 240.84L362.28 242.42L364.66 244.1L366.97 245.86L369.21 247.71L371.38 249.65L373.47 251.66L375.48 253.75L377.42 255.92L379.27 258.16L381.03 260.47L382.71 262.85L384.29 265.3L385.79 267.81L387.18 270.38L388.48 273.01L389.68 275.7L390.78 278.44L391.77 281.23L392.66 284.07L393.43 286.96L394.09 289.89L394.64 292.86L395.07 295.88L395.38 298.93L395.57 302.01L395.63 305.12L395.57 308.24L395.54 308.63L244.47 308.63L244.45 308.24L244.38 305.12L244.45 302.01L244.63 298.93L244.94 295.88L245.37 292.86L245.92 289.89L246.58 286.96L247.36 284.07L248.24 281.23L249.23 278.44L250.33 275.7L251.53 273.01L252.83 270.38L254.23 267.81L255.72 265.3L257.3 262.85L258.98 260.47L260.75 258.16L262.6 255.92L264.53 253.75L266.54 251.66L268.63 249.65L270.8 247.71L273.04 245.86L275.36 244.1L277.74 242.42L280.18 240.84L282.69 239.34L285.26 237.95L287.9 236.65L290.58 235.45L293.32 234.35L296.11 233.36L298.95 232.47L301.84 231.7L304.77 231.04L307.75 230.49L310.76 230.06L313.81 229.75L316.89 229.56L320.01 229.5L323.12 229.56L326.21 229.75L329.25 230.06L329.25 230.06L332.27 230.49Z" id="ak34Hfx5C"></path></defs><g><g><g><use xlink:href="#ak34Hfx5C" opacity="1" fill="#5627db" fill-opacity="1"></use></g></g></g></svg>