<?xml version="1.0" encoding="UTF-8" standalone="no"?>
<!DOCTYPE svg PUBLIC "-//W3C//DTD SVG 1.1//EN" "http://www.w3.org/Graphics/SVG/1.1/DTD/svg11.dtd">
<svg version="1.1" xmlns="http://www.w3.org/2000/svg" xmlns:xlink="http://www.w3.org/1999/xlink" preserveAspectRatio="xMidYMid meet" viewBox="0 0 640 640" width="640" height="640"><defs><path d="M371.24 13.04L383.54 15.31L395.68 18.05L407.63 21.25L419.39 24.91L430.94 29.02L442.29 33.56L453.41 38.53L464.29 43.91L474.94 49.69L485.33 55.87L495.46 62.44L505.31 69.37L514.88 76.68L524.16 84.33L533.13 92.34L541.79 100.67L550.13 109.33L558.13 118.3L565.79 127.58L573.09 137.15L580.03 147.01L586.59 157.13L592.77 167.52L598.56 178.17L603.94 189.06L608.9 200.18L613.44 211.52L617.55 223.08L621.21 234.83L624.41 246.79L627.15 258.92L629.42 271.23L631.2 283.69L632.48 296.31L633.26 309.08L633.5 320.93L541.12 320.93L541.12 321.97L480.55 321.97L480.66 320.2L480.8 313.59L480.66 306.99L480.26 300.45L479.61 293.99L478.7 287.61L477.54 281.3L476.13 275.09L474.49 268.97L472.62 262.95L470.51 257.03L468.19 251.22L465.65 245.53L462.89 239.95L459.93 234.5L456.76 229.18L453.4 223.99L449.85 218.95L446.11 214.04L442.19 209.29L438.09 204.7L433.82 200.26L429.39 195.99L424.79 191.9L420.04 187.98L415.14 184.24L410.09 180.68L404.91 177.32L399.58 174.16L394.13 171.19L388.56 168.44L382.86 165.89L377.05 163.57L371.14 161.47L365.11 159.59L358.99 157.95L352.78 156.55L346.48 155.39L340.09 154.48L333.63 153.82L327.09 153.42L320.49 153.29L313.89 153.42L307.35 153.82L300.89 154.48L294.5 155.39L288.2 156.55L281.99 157.95L275.87 159.59L269.84 161.47L263.93 163.57L258.12 165.89L252.42 168.44L246.85 171.19L241.4 174.16L236.08 177.32L230.89 180.68L225.84 184.24L220.94 187.98L216.19 191.9L211.6 195.99L207.16 200.26L202.89 204.7L198.79 209.29L194.87 214.04L191.13 218.95L187.58 223.99L184.22 229.18L181.05 234.5L178.09 239.95L175.33 245.53L172.79 251.22L170.47 257.03L168.36 262.95L166.49 268.97L164.85 275.09L163.45 281.3L162.29 287.61L161.37 293.99L160.72 300.45L160.32 306.99L160.19 313.59L160.32 320.2L160.43 321.97L108.61 321.97L108.79 330.7L109.32 339.34L110.18 347.88L111.39 356.32L112.92 364.65L114.77 372.86L116.94 380.95L119.42 388.91L122.2 396.73L125.27 404.41L128.63 411.94L132.28 419.31L136.19 426.51L140.38 433.55L144.82 440.4L149.52 447.07L154.46 453.55L159.64 459.83L165.06 465.9L170.7 471.76L176.56 477.41L182.63 482.82L188.91 488L195.39 492.95L202.06 497.64L208.92 502.09L215.95 506.27L223.16 510.19L230.52 513.83L238.05 517.19L245.73 520.26L253.55 523.04L261.51 525.52L269.6 527.69L277.81 529.54L286.14 531.08L294.58 532.28L303.12 533.15L311.76 533.67L320.49 533.85L329.22 533.67L337.86 533.15L346.4 532.28L354.84 531.08L363.17 529.54L371.38 527.69L379.47 525.52L387.43 523.04L395.25 520.26L402.93 517.19L410.46 513.83L417.83 510.19L425.03 506.27L432.06 502.09L438.92 497.64L445.59 492.95L452.07 488L458.35 482.82L464.42 477.41L470.28 471.76L475.92 465.9L481.34 459.83L486.52 453.55L491.47 447.07L496.16 440.4L500.61 433.55L504.79 426.51L508.7 419.31L510.72 415.23L619.3 415.23L617.55 420.87L613.44 432.42L608.9 443.77L603.94 454.89L598.56 465.78L592.77 476.42L586.59 486.81L580.03 496.94L573.09 506.79L565.79 516.36L558.13 525.64L550.13 534.61L541.79 543.27L533.13 551.61L524.16 559.61L514.88 567.27L505.31 574.57L495.46 581.51L485.33 588.07L474.94 594.25L464.29 600.04L453.41 605.42L442.29 610.38L430.94 614.93L419.39 619.03L407.63 622.69L395.68 625.9L383.54 628.64L371.24 630.9L358.77 632.68L346.15 633.96L333.39 634.74L320.49 635L307.6 634.74L294.83 633.96L282.21 632.68L269.74 630.9L257.44 628.64L245.3 625.9L233.35 622.69L221.59 619.03L210.04 614.93L198.7 610.38L187.57 605.42L176.69 600.04L166.04 594.25L155.65 588.07L145.52 581.51L135.67 574.57L126.1 567.27L116.82 559.61L107.85 551.61L99.19 543.27L90.85 534.61L82.85 525.64L75.2 516.36L67.89 506.79L60.95 496.94L54.39 486.81L48.21 476.42L42.42 465.78L37.04 454.89L32.08 443.77L27.54 432.42L23.43 420.87L19.77 409.11L16.57 397.16L13.83 385.03L11.56 372.72L9.78 360.25L8.5 347.63L7.72 334.87L7.46 321.97L7.72 309.08L8.5 296.31L9.78 283.69L11.56 271.23L13.83 258.92L16.57 246.79L19.77 234.83L23.43 223.08L27.54 211.52L32.08 200.18L37.04 189.06L42.42 178.17L48.21 167.52L54.39 157.13L60.95 147.01L67.89 137.15L75.2 127.58L82.85 118.3L90.85 109.33L99.19 100.67L107.85 92.34L116.82 84.33L126.1 76.68L135.67 69.37L145.52 62.44L155.65 55.87L166.04 49.69L176.69 43.91L187.57 38.53L198.7 33.56L210.04 29.02L221.59 24.91L233.35 21.25L245.3 18.05L257.44 15.31L269.74 13.04L282.21 11.27L294.83 9.98L307.6 9.21L320.49 8.94L333.39 9.21L346.15 9.98L358.77 11.27L358.77 11.27L371.24 13.04ZM339.63 197.1L344.27 197.95L348.84 198.98L353.35 200.19L357.78 201.57L362.14 203.12L366.42 204.83L370.61 206.71L374.72 208.74L378.73 210.92L382.65 213.25L386.47 215.72L390.19 218.34L393.79 221.09L397.29 223.98L400.68 227L403.94 230.14L407.09 233.41L410.1 236.79L412.99 240.29L415.74 243.9L418.36 247.61L420.84 251.43L423.17 255.35L425.35 259.37L427.38 263.47L429.25 267.66L430.96 271.94L432.51 276.3L433.89 280.73L435.1 285.24L436.13 289.82L436.99 294.46L437.66 299.16L438.14 303.92L438.43 308.73L438.53 313.59L438.43 318.46L438.4 319.06L202.58 319.06L202.55 318.46L202.45 313.59L202.55 308.73L202.84 303.92L203.32 299.16L204 294.46L204.85 289.82L205.88 285.24L207.09 280.73L208.47 276.3L210.02 271.94L211.73 267.66L213.6 263.47L215.63 259.37L217.81 255.35L220.14 251.43L222.62 247.61L225.24 243.9L227.99 240.29L230.88 236.79L233.9 233.41L237.04 230.14L240.3 227L243.69 223.98L247.19 221.09L250.8 218.34L254.51 215.72L258.33 213.25L262.25 210.92L266.26 208.74L270.37 206.71L274.56 204.83L278.84 203.12L283.2 201.57L287.63 200.19L292.14 198.98L296.71 197.95L301.35 197.1L306.06 196.43L310.82 195.94L315.63 195.65L320.49 195.55L325.35 195.65L330.17 195.94L334.93 196.43L334.93 196.43L339.63 197.1Z" id="dfIuEinoL"></path></defs><g><g><g><use xlink:href="#dfIuEinoL" opacity="1" fill="#5627db" fill-opacity="1"></use></g></g></g></svg>